HIERARCHY
ROOT pelvis
{
  OFFSET 0 100 0
  CHANNELS 6 Xposition Yposition Zposition Zrotation Xrotation Yrotation
  JOINT pelvis_right_femur
  {
    OFFSET -10.78128 -3.44521 -0.5502486
    CHANNELS 3 Zrotation Xrotation Yrotation
    JOINT right_femur_tibia
    {
      OFFSET -0.8047443 -44.0398 -0.1307829
      CHANNELS 3 Zrotation Xrotation Yrotation
      JOINT right_tibia_foot
      {
        OFFSET 3.006224 -47.83518 -5
        CHANNELS 3 Zrotation Xrotation Yrotation
        End Site
        {
          OFFSET 0 -5 15
        }
      }
    }
  }
  JOINT pelvis_left_femur
  {
    OFFSET 10.78128 -3.44521 -0.5502486
    CHANNELS 3 Zrotation Xrotation Yrotation
    JOINT left_femur_tibia
    {
      OFFSET 0.8047443 -44.0398 -0.1307829
      CHANNELS 3 Zrotation Xrotation Yrotation
      JOINT left_tibia_foot
      {
        OFFSET -4.370144 -48.10324 -4.275266
        CHANNELS 3 Zrotation Xrotation Yrotation
        End Site
        {
          OFFSET 0 -5 15
        }
      }
    }
  }
  JOINT pelvis_spine1
  {
    OFFSET 0 6.468898 -3.129235
    CHANNELS 3 Zrotation Xrotation Yrotation
    JOINT spine1
    {
      OFFSET 0 23.15396 4.99043
      CHANNELS 3 Zrotation Xrotation Yrotation
      JOINT spine2
      {
        OFFSET 0 20.79997 -5.064912
        CHANNELS 3 Zrotation Xrotation Yrotation
        JOINT neck
        {
          OFFSET 0 14.38658 9.616178
          CHANNELS 3 Zrotation Xrotation Yrotation
          End Site
          {
            OFFSET 0 20 0
          }
        }
      }
      JOINT right_manubrium
      {
        OFFSET -5.722621 16.35077 3.967754
        CHANNELS 3 Zrotation Xrotation Yrotation
        JOINT right_clavicle
        {
          OFFSET -13.16364 1.694482 -4.693211
          CHANNELS 3 Zrotation Xrotation Yrotation
          JOINT right_humerus
          {
            OFFSET -28.5034 -0.3100689 -2.792744
            CHANNELS 3 Zrotation Xrotation Yrotation
            JOINT right_radius
            {
              OFFSET -25.15693 0.02248979 -1.271978
              CHANNELS 3 Zrotation Xrotation Yrotation
              End Site
              {
                OFFSET -15 0 0
              }
            }
          }
        }
      }
      JOINT left_manubrium
      {
        OFFSET 5.722621 16.35077 3.967754
        CHANNELS 3 Zrotation Xrotation Yrotation
        JOINT left_clavicle
        {
          OFFSET 13.16364 1.694482 -4.693211
          CHANNELS 3 Zrotation Xrotation Yrotation
          JOINT left_humerus
          {
            OFFSET 29.39168 -1.063119 -2.237045
            CHANNELS 3 Zrotation Xrotation Yrotation
            JOINT left_radius
            {
              OFFSET 24.59957 -0.9528479 0.9047498
              CHANNELS 3 Zrotation Xrotation Yrotation
              End Site
              {
                OFFSET 15 -0 -0
              }
            }
          }
        }
      }
    }
  }
}
MOTION
Frames: 15
Frame Time: 0.0416666666667
26.94592 101.1889 255.7871 -0.125542 -0.9075081 -0.5604633 3.629587 9.741483 6.155499 -0 30.49188 -0 4.75485 -9.868333 -4.24861 0.5795667 -31.63004 -5.37566 -0 26.58808 -0 -6.393914 -8.50337 17.48008 1.564399 -7.108195 9.121941 -2.896376 10.41128 -1.973739 2.152915 20.35142 5.194927 3.536551 -17.32915 5.367652 5.851256 -20.07533 12.00128 79.23576 24.94487 -6.632369 -0 0 22.13851 -25.4549 9.532495 12.32747 1.903075 -15.48809 -3.337657 -90.50278 21.01648 24.12256 0 0 -9.702955 -3.157099 7.689713 14.09434
28.07175 101.4431 262.737 -0.1275593 -0.9186933 -0.6594188 3.320849 8.761908 6.128521 -0 38.09904 -0 6.907873 -4.919831 -4.98954 -0.4892676 -29.04469 -6.847554 -0 28.63072 -0 -6.306111 -8.873533 17.11989 1.426031 -8.069961 9.061927 -2.715649 10.4511 -1.956502 2.265738 20.50835 5.269489 3.492955 -16.92948 5.612019 5.833388 -18.97096 11.691 80.52319 24.74249 -8.064847 -0 0 20.8089 -25.06924 9.409872 11.83423 1.842066 -14.78597 -3.30551 -90.52539 21.19973 23.89168 0 0 -9.158486 -3.573127 7.74039 14.66823
29.09085 101.8791 269.1957 -0.1100371 -0.8304694 0.04969171 3.281479 6.676108 5.976212 -0 46.40914 -0 8.305705 -1.92158 -5.589742 -1.608203 -25.70639 -7.941445 -0 29.21228 -0 -5.745319 -10.59962 16.79575 1.20797 -8.667534 8.49112 -2.467824 10.33914 -2.246016 2.318909 20.70174 5.421719 3.424053 -16.58029 5.915157 5.915926 -17.96068 11.47886 81.81776 24.6394 -9.663359 -0 0 18.95876 -24.49827 9.33713 11.13426 1.795924 -14.7393 -3.535957 -89.92515 21.52708 22.71306 0 0 -9.142123 -3.87089 7.833041 15.07614
29.92532 103.0303 275.407 -0.09669512 -0.7575405 0.6364461 3.3468 -0.5455111 5.552662 -0 53.21453 -0 8.705108 -3.464482 -6.378422 -2.355087 -21.20733 -8.583163 -0 28.48428 -0 -5.164524 -12.54616 16.41157 0.9559222 -9.148546 7.784696 -2.178807 10.38673 -2.517517 2.286718 21.19821 5.620815 3.306928 -16.18021 6.234664 6.328495 -17.17123 11.25847 82.99115 24.58031 -11.2988 -0 0 16.91383 -23.8538 9.29346 10.35374 1.62316 -15.07328 -3.668322 -88.7587 21.92194 20.99899 0 0 -9.490583 -3.972937 8.024588 15.2258
30.73627 104.1251 281.0052 -0.08869921 -0.7100791 1.013971 3.054491 -6.732234 5.248442 -0 57.70362 -0 9.00547 -4.414764 -7.456348 -2.721829 -16.6483 -8.92789 -0 26.83292 -0 -4.795277 -14.20454 15.97661 0.7615536 -9.281933 6.771642 -1.834784 10.32548 -3.052738 2.166608 21.76248 5.916078 3.124927 -15.68741 6.620175 6.444037 -16.78177 10.97459 83.94197 24.53356 -12.60664 -0 0 15.31063 -23.26365 9.225468 9.691494 1.62576 -15.60601 -3.897484 -87.3592 22.30029 18.71224 0 0 -10.2392 -3.938825 8.287303 15.19335
31.52336 105.3013 286.3839 -0.07567151 -0.6303962 1.652434 3.249457 -13.6533 5.153122 -0 57.90153 -0 8.5557 -5.561108 -8.329656 -2.982811 -11.9962 -9.175765 -0 24.61729 -0 -4.625958 -15.54749 15.37375 0.5495062 -9.048136 5.542708 -1.487203 10.37043 -3.976987 2.103877 22.38512 6.153613 2.95851 -15.1324 6.99157 6.115145 -16.52119 10.49554 84.78912 24.42631 -13.75786 -0 0 14.30006 -22.78796 9.096401 9.212629 1.781197 -16.16477 -4.181214 -85.9026 22.60721 16.07449 0 0 -11.28997 -3.746212 8.626029 14.92226
32.32693 105.9132 291.7371 -0.05165721 -0.4714314 2.933669 3.336913 -19.64906 5.38518 -0 54.23053 -0 7.678495 -6.137901 -9.368839 -3.198419 -7.611951 -9.388834 -0 22.19339 -0 -4.524444 -16.88116 14.59579 0.3287718 -9.187734 4.367085 -1.087272 9.920346 -5.206123 2.123434 22.51182 6.413806 2.807019 -14.98258 7.475967 5.295263 -15.93939 9.801129 85.62558 24.21931 -15.10458 -0 0 13.64286 -22.40473 8.907808 8.8543 2.224957 -16.61611 -4.505789 -84.47144 22.82965 13.24551 0 0 -12.63837 -3.483429 8.997835 14.44671
32.98669 105.9879 296.7506 -0.0281046 -0.288291 4.410256 2.948917 -24.76038 5.754579 -0 47.28143 -0 6.639605 -6.003479 -10.49 -3.14168 -3.640497 -9.494683 -0 20.12296 -0 -4.443986 -18.32161 13.67627 -0.05544254 -9.012187 3.401824 -0.5551179 9.580429 -6.314481 2.367459 22.6514 6.418609 2.770708 -14.80988 7.823533 4.452216 -15.49674 9.170368 86.29106 23.988 -16.25705 -0 0 13.1775 -22.0667 8.68812 8.519642 2.722416 -17.36031 -4.834194 -82.9353 22.99163 10.09978 0 0 -14.1958 -3.196472 9.357077 13.83145
33.53584 105.5482 301.8983 -0.009868326 -0.1146093 5.81135 2.229263 -29.21525 6.076602 -0 37.89608 -0 5.613508 -5.366099 -11.718 -2.943193 0.09024298 -9.541628 -0 18.71326 -0 -4.351656 -19.93044 12.70746 -0.5208246 -8.670052 2.541369 -0.06208335 9.236635 -7.411712 2.734943 22.52063 6.223995 2.783128 -14.81202 8.01946 3.541752 -14.93616 8.486916 87.0486 23.73681 -17.41207 -0 0 12.61917 -21.68634 8.476046 8.137813 3.335107 -18.09002 -5.000678 -81.41833 23.07019 7.081786 0 0 -15.71441 -2.80023 9.745766 13.1211
33.95144 104.4978 307.4711 0.006536618 0.09019345 7.466199 1.344423 -32.11906 6.525398 -0 29.04853 -0 4.450033 -5.296319 -12.21068 -2.53322 3.601447 -9.564783 -0 18.10117 -0 -4.294385 -21.61976 11.78219 -0.9369917 -8.429461 1.78256 0.3866755 8.808633 -8.303708 3.071904 22.22013 5.942677 2.789447 -14.91928 8.061812 2.850745 -14.31197 8.0018 87.85971 23.51358 -18.44113 -0 0 11.82144 -21.19383 8.310079 7.599079 3.966052 -18.84217 -5.084982 -80.0263 23.08021 4.31613 0 0 -17.07263 -2.305265 10.14718 12.38034
34.26251 103.1175 312.9927 0.01257414 0.1899169 8.274467 0.9004504 -34.04451 6.20559 -0 20.70412 -0 3.011637 -6.236318 -12.56888 -2.145076 6.780907 -9.535361 -0 18.44486 -0 -4.396228 -22.9765 11.08675 -1.086348 -8.198073 1.601693 0.7513545 8.398092 -8.418063 3.30277 22.04364 5.655257 2.772999 -15.01883 7.990591 2.457202 -13.70093 7.905191 88.59536 23.36282 -19.26566 -0 0 10.63573 -20.58006 8.19625 6.904568 4.476504 -19.57101 -4.962836 -78.80058 23.03132 1.686863 0 0 -18.20856 -1.745208 10.54401 11.63696
34.43314 102.1527 318.7344 0.01439827 0.2232495 8.547256 1.506403 -35.41694 5.55864 -0 16.85625 -0 1.707351 -6.834082 -13.54484 -1.705456 9.589544 -9.329733 -0 19.78104 -0 -4.819985 -23.34206 10.59728 -1.170097 -7.576835 1.517983 1.066572 8.18433 -8.269023 3.433486 21.96467 5.364597 2.742198 -15.19185 7.814759 2.623655 -13.14751 8.020498 89.32707 23.24976 -19.90523 -0 0 9.140452 -19.89475 8.115108 6.06387 4.710509 -20.17263 -4.666992 -77.97356 22.90976 -0.09316269 0 0 -18.74706 -1.135773 10.89989 10.989
34.53668 101.3064 324.9708 0.01880139 0.3258761 9.382765 1.713388 -35.70804 5.288423 -0 18.45431 -0 0.8052819 -6.252095 -14.54406 -0.9532243 11.6673 -9.217261 -0 22.44651 -0 -5.510001 -22.44127 10.25919 -1.247374 -7.861516 1.23238 1.269314 7.710581 -8.1707 3.499948 21.84216 5.271917 2.691317 -15.672 7.84509 2.874539 -12.42821 8.015123 90.15698 23.0867 -20.61049 -0 0 7.610755 -19.21465 8.032337 5.203843 4.702226 -20.30813 -4.399864 -77.91132 22.86084 -0.7790805 0 0 -18.57932 -0.6325785 11.18314 10.53917
34.58337 100.709 331.6091 0.02206971 0.4461389 10.36296 3.240597 -33.75736 5.947872 -0 21.94747 -0 -0.08855664 -5.788791 -14.90633 -0.221348 12.66792 -9.302409 -0 27.09813 -0 -6.315721 -20.07337 10.43117 -1.260669 -8.462275 0.9022764 1.431509 7.483841 -8.065805 3.497037 21.92134 5.203819 2.659216 -15.96802 7.805456 3.034872 -11.82539 8.041954 90.8905 22.89297 -20.87498 -0 0 6.505781 -18.67403 7.894665 4.519554 4.785968 -20.06163 -4.11157 -78.65624 22.94777 -0.5267231 0 0 -17.9418 -0.2934419 11.40704 10.26817
34.61998 100.7377 338.8803 0.023113 0.5342671 11.08439 4.091502 -32.24432 7.302366 -0 26.6348 -0 -1.073911 -5.977275 -14.75337 0.2702619 12.13495 -9.309507 -0 34.21044 -0 -7.037363 -16.4906 11.41527 -1.312828 -9.749385 0.7054903 1.681939 7.556513 -8.054492 3.393353 22.14639 5.187574 2.618602 -16.16239 7.716941 3.218015 -10.96161 7.779662 91.54373 22.62384 -21.19061 -0 0 5.655401 -18.3309 7.697756 3.954982 4.833073 -19.29546 -3.65482 -80.23385 23.16548 0.8350533 0 0 -16.70604 -0.1880701 11.58587 10.19002
